<svg width="83" height="21" viewBox="0 0 83 21" fill="none" xmlns="http://www.w3.org/2000/svg">
<path d="M0 15.75C0 10.7794 4.02944 6.75 9 6.75H13.5V20.25H0V15.75Z" fill="#2162E3"/>
<path d="M6.75 0H20.25V4.5C20.25 9.47056 16.2206 13.5 11.25 13.5H6.75V0Z" fill="#82ABFF"/>
<path d="M36.126 3.4C37.218 3.4 38.166 3.58 38.97 3.94C39.786 4.3 40.41 4.816 40.842 5.488C41.274 6.16 41.49 6.958 41.49 7.882C41.49 8.794 41.274 9.592 40.842 10.276C40.41 10.948 39.786 11.464 38.97 11.824C38.166 12.184 37.218 12.364 36.126 12.364H33.282V16H30.942V3.4H36.126ZM36.018 10.384C37.038 10.384 37.812 10.168 38.34 9.736C38.868 9.304 39.132 8.686 39.132 7.882C39.132 7.078 38.868 6.46 38.34 6.028C37.812 5.596 37.038 5.38 36.018 5.38H33.282V10.384H36.018ZM46.6549 6.28C48.0709 6.28 49.1509 6.622 49.8949 7.306C50.6509 7.978 51.0289 8.998 51.0289 10.366V16H48.9049V14.83C48.6289 15.25 48.2329 15.574 47.7169 15.802C47.2129 16.018 46.6009 16.126 45.8809 16.126C45.1609 16.126 44.5309 16.006 43.9909 15.766C43.4509 15.514 43.0309 15.172 42.7309 14.74C42.4429 14.296 42.2989 13.798 42.2989 13.246C42.2989 12.382 42.6169 11.692 43.2529 11.176C43.9009 10.648 44.9149 10.384 46.2949 10.384H48.7789V10.24C48.7789 9.568 48.5749 9.052 48.1669 8.692C47.7709 8.332 47.1769 8.152 46.3849 8.152C45.8449 8.152 45.3109 8.236 44.7829 8.404C44.2669 8.572 43.8289 8.806 43.4689 9.106L42.5869 7.468C43.0909 7.084 43.6969 6.79 44.4049 6.586C45.1129 6.382 45.8629 6.28 46.6549 6.28ZM46.3489 14.488C46.9129 14.488 47.4109 14.362 47.8429 14.11C48.2869 13.846 48.5989 13.474 48.7789 12.994V11.878H46.4569C45.1609 11.878 44.5129 12.304 44.5129 13.156C44.5129 13.564 44.6749 13.888 44.9989 14.128C45.3229 14.368 45.7729 14.488 46.3489 14.488ZM62.2007 6.388L57.7007 16.774C57.2807 17.818 56.7707 18.55 56.1707 18.97C55.5707 19.402 54.8447 19.618 53.9927 19.618C53.5127 19.618 53.0387 19.54 52.5707 19.384C52.1027 19.228 51.7187 19.012 51.4187 18.736L52.3187 17.08C52.5347 17.284 52.7867 17.446 53.0747 17.566C53.3747 17.686 53.6747 17.746 53.9747 17.746C54.3707 17.746 54.6947 17.644 54.9467 17.44C55.2107 17.236 55.4507 16.894 55.6667 16.414L55.8287 16.036L51.6347 6.388H53.9747L56.9987 13.498L60.0407 6.388H62.2007ZM65.3116 5.38H61.1356V3.4H71.8276V5.38H67.6516V16H65.3116V5.38ZM76.1633 16.126C75.1913 16.126 74.3153 15.916 73.5353 15.496C72.7553 15.076 72.1433 14.494 71.6993 13.75C71.2673 12.994 71.0513 12.142 71.0513 11.194C71.0513 10.246 71.2673 9.4 71.6993 8.656C72.1433 7.912 72.7553 7.33 73.5353 6.91C74.3153 6.49 75.1913 6.28 76.1633 6.28C77.1473 6.28 78.0293 6.49 78.8093 6.91C79.5893 7.33 80.1953 7.912 80.6273 8.656C81.0713 9.4 81.2933 10.246 81.2933 11.194C81.2933 12.142 81.0713 12.994 80.6273 13.75C80.1953 14.494 79.5893 15.076 78.8093 15.496C78.0293 15.916 77.1473 16.126 76.1633 16.126ZM76.1633 14.2C76.9913 14.2 77.6753 13.924 78.2153 13.372C78.7553 12.82 79.0253 12.094 79.0253 11.194C79.0253 10.294 78.7553 9.568 78.2153 9.016C77.6753 8.464 76.9913 8.188 76.1633 8.188C75.3353 8.188 74.6513 8.464 74.1113 9.016C73.5833 9.568 73.3193 10.294 73.3193 11.194C73.3193 12.094 73.5833 12.82 74.1113 13.372C74.6513 13.924 75.3353 14.2 76.1633 14.2Z" fill="#0D1016"/>
</svg>
